<svg xmlns="http://www.w3.org/2000/svg" width="69" height="64" xml:space="preserve"><path fill="#EC1C24" d="M67.399 10.584c-.003-.015-.003-.025-.003-.025 0 .007 0 .019.003.025z"/><path fill="#3B6878" d="M18.287 43.444s0-2.391-3.824-3.926c0 0-8.168-2.192-9.817-3.923 0 0-.662 3.711 4.206 4.7 4.867.991 6.847.18 9.435 3.149zm7.557 13.48c6.021-1.725 5.857-6.606 5.857-6.606-9.486 2.557-13.282-3.38-15.259-6.008-1.979-2.628-8.004-1.91-8.004-1.91s4.209 1.154 7.92 5.608c3.71 4.455 7.588 4.701 10.063 5.855 2.475 1.158-.577 3.061-.577 3.061zm27.033-18.195c-1.857.354-2.855 4.369-2.855 4.369 2.588-2.967 3.764-1.813 8.632-2.803 4.867-.989 4.206-4.7 4.206-4.7-1.65 1.731-9.983 3.134-9.983 3.134zm-1.812 5.581c-1.98 2.628-5.775 8.564-15.26 6.008 0 0-.164 4.882 5.855 6.606 0 0-3.052-1.903-.577-3.06 2.476-1.154 6.353-1.4 10.063-5.855 3.714-4.454 7.92-5.608 7.92-5.608s-6.021-.719-8.001 1.909zm-17.511 6.143c0 6.426-6.695 7.603-6.695 7.603 1.811.091 1.174 1.357 1.174 1.357 2.806-.905 4.435-3.168 4.435-3.168-.453 2.625-3.165 4.164-3.165 4.164 3.892 0 4.251 2.986 4.251 2.986s.365-2.986 4.254-2.986c0 0-2.712-1.539-3.165-4.164 0 0 1.629 2.263 4.432 3.168 0 0-.63-1.267 1.18-1.357-.001 0-6.701-1.177-6.701-7.603zm-7.458-12.216c6.593 5.04 5.606 7.862 5.606 7.862 1.284-3.241.238-5.781-1.137-7.727a16.852 16.852 0 0 0-3.771-3.811 9.047 9.047 0 0 0-.699-.469c-3.965-2.568-10.061-5.581-16.75-9.758C.106 18.557.065 11.562.101 10.656-.768 22.29 3.907 26.01 14.296 31.099c6.115 2.995 9.421 5.322 11.8 7.138zm41.199-27.576c.035.916-.012 7.903-9.244 13.675-6.689 4.177-12.785 7.189-16.75 9.758 0 0-.271.158-.699.469a16.872 16.872 0 0 0-3.77 3.811c-1.375 1.945-2.418 4.485-1.137 7.727 0 0-.987-2.822 5.605-7.862 2.379-1.816 5.686-4.144 11.801-7.139 10.388-5.089 15.064-8.81 14.194-20.439z"/><path fill="#C31F4E" d="M27.329 28.714c-6.805-5.945-10.335-5.939-10.335-10.335 0 0-1.295 3.018 1.553 6.239 0 0-16.954-16.947-12.994-24.618 0 0-10.759 11.735 5.074 22.848 12.713 8.924 19.547 9.817 22.268 16.501.001 0 1.239-4.69-5.566-10.635zM8.438 30.64C.827 26.912.108 23.841.108 23.841c0 5.605 1.601 8.075 14.563 13.706 12.962 5.632 13.282 10.095 13.282 10.095-4.356 0-8.711-3.188-8.711-3.188 5.1 7.968 12.459 4.78 12.459 4.78-.768-7.009-13.148-13.638-23.263-18.594zm48.332-7.792C72.603 11.735 61.844 0 61.844 0c3.959 7.671-12.991 24.618-12.991 24.618 2.846-3.222 1.55-6.239 1.55-6.239 0 4.396-3.529 4.39-10.334 10.335-6.806 5.945-5.567 10.635-5.567 10.635 2.721-6.684 9.554-7.578 22.268-16.501zm2.189 7.792c-10.115 4.956-22.494 11.585-23.264 18.595 0 0 7.359 3.188 12.459-4.78 0 0-4.355 3.188-8.712 3.188 0 0 .319-4.463 13.282-10.095 12.963-5.631 14.563-8.101 14.563-13.706.002-.001-.716 3.07-8.328 6.798z"/></svg>